<svg xmlns="http://www.w3.org/2000/svg" width="2500" height="1591" viewBox="0.276 0.525 124.326 79.116"><path d="M4.621 6.965c0 1.368-.833 2.38-2.262 2.38-1.19 0-2.083-1.012-2.083-2.38 0-1.31.952-2.381 2.202-2.381 1.31 0 2.143 1.071 2.143 2.381zM1.327 78.5V23.78H3.57V78.5H1.327zM78.174 39.512c0 27.588-15.315 40.129-32.079 40.129-17.125 0-30.993-13.565-30.993-38.988C15.102 14.549 29.453.526 47.301.526 64.787.524 78.174 14.318 78.174 39.512zm-60.799.57C17.375 61 27.513 77.25 46.201 77.25c18.818 0 29.611-16.75 29.611-37.406 0-19.155-8.648-36.636-28.382-36.636S17.375 19.667 17.375 40.082zM86.406 72.571c3.763 2.508 10.258 4.93 15.844 4.93 10.602 0 20.031-7.417 20.031-18.334 0-10.131-6.281-15.417-16.945-19.958-9.544-4.064-18.125-8.475-18.125-19.305 0-11.285 8.891-19.267 20.975-19.267 6.498 0 11.4 1.824 13.68 3.42l-.906 1.968c-1.938-1.367-7.176-3.109-12.874-3.109-12.771 0-18.334 9.65-18.334 16.754 0 9.812 7.606 13.093 17.41 17.767 11.399 5.585 17.44 10.51 17.44 21.227 0 11.514-8.207 20.86-22.799 20.86-6.043 0-12.996-2.051-16.416-4.674l1.019-2.279z"/></svg>