<?xml version="1.0" ?><svg id="Layer_1" style="enable-background:new 0 0 64 64;" version="1.1" viewBox="0 0 64 64" xml:space="preserve" xmlns="http://www.w3.org/2000/svg" xmlns:xlink="http://www.w3.org/1999/xlink"><style type="text/css">
	.st0{fill:#B4E6DD;}
	.st1{fill:#80D4C4;}
	.st2{fill:#D2F0EA;}
	.st3{fill:#FFFFFF;}
	.st4{fill:#FBD872;}
	.st5{fill:#DB7767;}
	.st6{fill:#F38E7A;}
	.st7{fill:#F6AF62;}
	.st8{fill:#32A48E;}
	.st9{fill:#A38FD8;}
	.st10{fill:#7C64BD;}
	.st11{fill:#EAA157;}
	.st12{fill:#9681CF;}
	.st13{fill:#F9C46A;}
	.st14{fill:#CE6B61;}
</style><g><path class="st6" d="M48.99,38.49c0,0-3.85,10.54-16.99,17.51c-13.15-6.97-17-17.51-17-17.51C9.78,25.79,11.89,14.6,11.89,14.6   C27.93,13.37,32,8,32,8s4.06,5.37,20.11,6.6C52.11,14.6,54.22,25.79,48.99,38.49z"/><path class="st5" d="M20,46.42c2.64,3.13,6.51,6.66,12,9.58c5.49-2.91,9.35-6.45,12-9.58V30.98H20V46.42z"/><circle class="st3" cx="32" cy="30.98" r="12"/><circle class="st4" cx="32" cy="30.98" r="10"/><g><g><circle class="st3" cx="32" cy="28.6" r="3.5"/><path class="st7" d="M37.5,35.92c-0.02-1.94-1.98-3.29-3.83-2.7c-0.53,0.17-1.09,0.26-1.67,0.26c-0.58,0-1.14-0.09-1.67-0.26     c-1.85-0.59-3.81,0.76-3.83,2.7c0,0.02,0,0.03,0,0.05v3.36c1.58,1.05,3.47,1.66,5.5,1.66s3.92-0.61,5.5-1.66v-3.36     C37.5,35.95,37.5,35.93,37.5,35.92z"/></g></g></g></svg>