<svg xmlns="http://www.w3.org/2000/svg" width="2500" height="659" viewBox="10 4.544 572.441 150.913"><circle cx="24.681" cy="80.012" r="14.681" fill="#ff6309"/><circle cx="129.953" cy="140.775" r="14.682" fill="#ffb515"/><circle cx="129.94" cy="19.225" r="14.681" fill="#c90016"/><path d="M94.86 43.684c18.281 0 33.448 13.574 35.96 31.172h25.152c-1.144-13.828-6.875-26.717-16.461-36.881-6.139 3.126-13.688 3.186-20.1-.515-6.417-3.706-10.14-10.277-10.497-17.164a61.856 61.856 0 0 0-14.056-1.612c-9.178 0-18.047 2.003-26.113 5.802L81.34 46.297a36.132 36.132 0 0 1 13.52-2.613z" fill="#ff6309"/><path d="M58.534 80.012c0-11.574 5.44-21.899 13.896-28.556L59.84 29.648a62.194 62.194 0 0 0-8.349 6.998C44.205 43.932 38.98 52.729 36.105 62.33c5.793 3.752 9.629 10.266 9.629 17.682 0 7.414-3.836 13.929-9.629 17.68 2.875 9.601 8.1 18.397 15.386 25.685a62.257 62.257 0 0 0 8.342 6.996l12.592-21.811c-8.454-6.656-13.891-16.98-13.891-28.55z" fill="#ffb515"/><path d="M130.821 85.151c-2.505 17.604-17.675 31.187-35.961 31.187-4.778 0-9.344-.93-13.525-2.615l-12.594 21.812c8.064 3.801 16.938 5.805 26.118 5.805 4.796 0 9.509-.553 14.066-1.614.351-6.896 4.074-13.479 10.496-17.187 6.414-3.703 13.966-3.645 20.105-.512 9.577-10.166 15.304-23.053 16.443-36.876h-25.148z" fill="#c90016"/><path d="M247.489 79.772V51.515c0-4.281-3.426-7.707-7.707-7.707s-7.706 3.425-7.706 7.707v28.257c0 10.274-4.282 13.701-11.988 13.701-7.705 0-11.987-3.427-11.987-13.701V51.515c0-4.281-3.425-7.707-7.706-7.707s-7.707 3.425-7.707 7.707v28.257c0 20.55 11.988 29.113 27.4 29.113 15.413 0 27.401-8.563 27.401-29.113M319.416 79.772c0-29.113-11.986-35.964-27.399-35.964-7.707 0-11.988 3.425-11.988 3.425V27.539c0-10.275-15.413-10.275-15.413 0v52.233c0 20.55 11.988 29.113 27.401 29.113s27.399-8.563 27.399-29.113m-39.389-1.713c0-17.981 8.562-19.694 11.988-19.694 5.138 0 11.986 4.282 11.986 19.694 0 10.274-4.28 17.126-11.986 17.126-7.707.001-11.988-6.852-11.988-17.126M582.441 79.772V51.515c0-4.281-3.426-7.707-7.707-7.707s-7.706 3.425-7.706 7.707v28.257c0 10.274-4.281 13.701-11.987 13.701-7.707 0-11.987-3.427-11.987-13.701V51.515a7.676 7.676 0 0 0-7.707-7.707 7.674 7.674 0 0 0-7.706 7.707v28.257c0 20.55 11.986 29.113 27.4 29.113 15.412 0 27.4-8.563 27.4-29.113M387.823 79.773V51.516c0-4.281-3.426-7.706-7.707-7.706s-7.706 3.425-7.706 7.706v28.257c0 10.274-4.281 13.699-11.988 13.699-7.705 0-11.987-3.425-11.987-13.699V51.516c0-4.281-3.425-7.706-7.706-7.706s-7.706 3.425-7.706 7.706v28.257c0 20.55 11.987 29.112 27.399 29.112 15.413 0 27.401-8.562 27.401-29.112M478.268 43.808c-9.419 0-9.419 13.701 0 13.701h2.569v29.798c0 16.271 4.023 21.578 17.896 21.578 6.679 0 16.439-1.198 16.439-8.05 0-4.28-3.938-5.395-5.052-5.395-2.397 0-4.882 1.027-7.621 1.027-4.795 0-6.251-2.396-6.251-10.445V57.509h6.851c9.419 0 9.419-13.701 0-13.701h-6.851V27.539c0-10.275-15.412-10.275-15.412 0v16.269h-2.568M403.766 72.921v28.257a7.675 7.675 0 0 0 7.706 7.707 7.675 7.675 0 0 0 7.706-7.707V72.921c0-10.274 4.281-13.701 11.987-13.701 7.707 0 11.988 3.427 11.988 13.701v28.257c0 4.281 3.425 7.707 7.706 7.707s7.706-3.425 7.706-7.707V72.921c0-20.55-11.987-29.113-27.4-29.113s-27.399 8.564-27.399 29.113"/></svg>